<?xml version="1.0" encoding="UTF-8" standalone="no"?>
<!DOCTYPE svg PUBLIC "-//W3C//DTD SVG 1.1//EN"
 "http://www.w3.org/Graphics/SVG/1.1/DTD/svg11.dtd">
<!-- Generated by graphviz version 2.47.3 (20210619.1520)
 -->
<!-- Title: dependencies Pages: 1 -->
<svg width="408pt" height="247pt"
 viewBox="0.00 0.00 408.00 246.80" xmlns="http://www.w3.org/2000/svg" xmlns:xlink="http://www.w3.org/1999/xlink">
<g id="graph0" class="graph" transform="scale(1 1) rotate(0) translate(4 242.8)">
<title>dependencies</title>
<polygon fill="white" stroke="transparent" points="-4,4 -4,-242.8 404,-242.8 404,4 -4,4"/>
<text text-anchor="middle" x="200" y="-8.2" font-family="sans-serif" font-size="14.00">dependencies</text>
<g id="clust1" class="cluster">
<title>cluster_MockPostsModule</title>
<polygon fill="none" stroke="black" stroke-dasharray="1,5" points="8,-32.8 8,-230.8 392,-230.8 392,-32.8 8,-32.8"/>
</g>
<g id="clust6" class="cluster">
<title>cluster_MockPostsModule_providers</title>
<polygon fill="none" stroke="black" points="63,-40.8 63,-92.8 338,-92.8 338,-40.8 63,-40.8"/>
</g>
<g id="clust4" class="cluster">
<title>cluster_MockPostsModule_exports</title>
<polygon fill="none" stroke="black" points="16,-170.8 16,-222.8 384,-222.8 384,-170.8 16,-170.8"/>
</g>
<!-- AuthService  -->
<g id="node1" class="node">
<title>AuthService </title>
<polygon fill="#fb8072" stroke="black" points="375.98,-214.8 286.02,-214.8 286.02,-178.8 375.98,-178.8 375.98,-214.8"/>
<text text-anchor="middle" x="331" y="-192.6" font-family="Times,serif" font-size="14.00">AuthService </text>
</g>
<!-- LikesService  -->
<g id="node2" class="node">
<title>LikesService </title>
<polygon fill="#fb8072" stroke="black" points="268.08,-214.8 175.92,-214.8 175.92,-178.8 268.08,-178.8 268.08,-214.8"/>
<text text-anchor="middle" x="222" y="-192.6" font-family="Times,serif" font-size="14.00">LikesService </text>
</g>
<!-- RequiredAuthGuard  -->
<g id="node3" class="node">
<title>RequiredAuthGuard </title>
<polygon fill="#fb8072" stroke="black" points="157.8,-214.8 24.2,-214.8 24.2,-178.8 157.8,-178.8 157.8,-214.8"/>
<text text-anchor="middle" x="91" y="-192.6" font-family="Times,serif" font-size="14.00">RequiredAuthGuard </text>
</g>
<!-- MockPostsModule -->
<g id="node4" class="node">
<title>MockPostsModule</title>
<polygon fill="#8dd3c7" stroke="black" points="282.77,-149.8 279.77,-153.8 258.77,-153.8 255.77,-149.8 161.23,-149.8 161.23,-113.8 282.77,-113.8 282.77,-149.8"/>
<text text-anchor="middle" x="222" y="-127.6" font-family="Times,serif" font-size="14.00">MockPostsModule</text>
</g>
<!-- MockPostsModule&#45;&gt;AuthService  -->
<g id="edge1" class="edge">
<title>MockPostsModule&#45;&gt;AuthService </title>
<path fill="none" stroke="black" stroke-dasharray="5,2" d="M275.59,-149.91C275.59,-169.14 275.59,-196.8 275.59,-196.8 275.59,-196.8 276.63,-196.8 276.63,-196.8"/>
<polygon fill="black" stroke="black" points="276.01,-200.3 286.01,-196.8 276.01,-193.3 276.01,-200.3"/>
</g>
<!-- MockPostsModule&#45;&gt;LikesService  -->
<g id="edge2" class="edge">
<title>MockPostsModule&#45;&gt;LikesService </title>
<path fill="none" stroke="black" stroke-dasharray="5,2" d="M222,-149.91C222,-149.91 222,-168.79 222,-168.79"/>
<polygon fill="black" stroke="black" points="218.5,-168.79 222,-178.79 225.5,-168.79 218.5,-168.79"/>
</g>
<!-- MockPostsModule&#45;&gt;RequiredAuthGuard  -->
<g id="edge3" class="edge">
<title>MockPostsModule&#45;&gt;RequiredAuthGuard </title>
<path fill="none" stroke="black" stroke-dasharray="5,2" d="M168.41,-149.91C168.41,-169.14 168.41,-196.8 168.41,-196.8 168.41,-196.8 167.37,-196.8 167.37,-196.8"/>
<polygon fill="black" stroke="black" points="167.97,-193.3 157.97,-196.8 167.97,-200.3 167.97,-193.3"/>
</g>
<!-- AuthService -->
<g id="node5" class="node">
<title>AuthService</title>
<ellipse fill="#fdb462" stroke="black" cx="271" cy="-66.8" rx="59.11" ry="18"/>
<text text-anchor="middle" x="271" y="-62.6" font-family="Times,serif" font-size="14.00">AuthService</text>
</g>
<!-- AuthService&#45;&gt;MockPostsModule -->
<g id="edge4" class="edge">
<title>AuthService&#45;&gt;MockPostsModule</title>
<path fill="none" stroke="black" d="M247.29,-83.54C247.29,-83.54 247.29,-103.52 247.29,-103.52"/>
<polygon fill="black" stroke="black" points="243.79,-103.52 247.29,-113.52 250.79,-103.52 243.79,-103.52"/>
</g>
<!-- LikesService -->
<g id="node6" class="node">
<title>LikesService</title>
<ellipse fill="#fdb462" stroke="black" cx="132" cy="-66.8" rx="61.39" ry="18"/>
<text text-anchor="middle" x="132" y="-62.6" font-family="Times,serif" font-size="14.00">LikesService</text>
</g>
<!-- LikesService&#45;&gt;MockPostsModule -->
<g id="edge5" class="edge">
<title>LikesService&#45;&gt;MockPostsModule</title>
<path fill="none" stroke="black" d="M177.28,-79.03C177.28,-79.03 177.28,-103.48 177.28,-103.48"/>
<polygon fill="black" stroke="black" points="173.78,-103.48 177.28,-113.48 180.78,-103.48 173.78,-103.48"/>
</g>
</g>
</svg>
