<?xml version="1.0" encoding="UTF-8" standalone="no"?>
<!DOCTYPE svg PUBLIC "-//W3C//DTD SVG 1.1//EN"
 "http://www.w3.org/Graphics/SVG/1.1/DTD/svg11.dtd">
<!-- Generated by graphviz version 2.47.3 (20210619.1520)
 -->
<!-- Title: dependencies Pages: 1 -->
<svg width="598pt" height="174pt"
 viewBox="0.00 0.00 598.00 173.80" xmlns="http://www.w3.org/2000/svg" xmlns:xlink="http://www.w3.org/1999/xlink">
<g id="graph0" class="graph" transform="scale(1 1) rotate(0) translate(4 169.8)">
<title>dependencies</title>
<polygon fill="white" stroke="transparent" points="-4,4 -4,-169.8 594,-169.8 594,4 -4,4"/>
<text text-anchor="middle" x="295" y="-8.2" font-family="sans-serif" font-size="14.00">dependencies</text>
<g id="clust1" class="cluster">
<title>cluster_ApiModule</title>
<polygon fill="none" stroke="black" stroke-dasharray="1,5" points="8,-32.8 8,-157.8 582,-157.8 582,-32.8 8,-32.8"/>
</g>
<g id="clust3" class="cluster">
<title>cluster_ApiModule_imports</title>
<polygon fill="none" stroke="black" points="16,-40.8 16,-92.8 574,-92.8 574,-40.8 16,-40.8"/>
</g>
<!-- AuthModule -->
<g id="node1" class="node">
<title>AuthModule</title>
<polygon fill="#8dd3c7" stroke="black" points="565.55,-84.8 562.55,-88.8 541.55,-88.8 538.55,-84.8 478.45,-84.8 478.45,-48.8 565.55,-48.8 565.55,-84.8"/>
<text text-anchor="middle" x="522" y="-62.6" font-family="Times,serif" font-size="14.00">AuthModule</text>
</g>
<!-- ApiModule -->
<g id="node6" class="node">
<title>ApiModule</title>
<polygon fill="#8dd3c7" stroke="black" points="326.05,-149.8 323.05,-153.8 302.05,-153.8 299.05,-149.8 245.95,-149.8 245.95,-113.8 326.05,-113.8 326.05,-149.8"/>
<text text-anchor="middle" x="286" y="-127.6" font-family="Times,serif" font-size="14.00">ApiModule</text>
</g>
<!-- AuthModule&#45;&gt;ApiModule -->
<g id="edge1" class="edge">
<title>AuthModule&#45;&gt;ApiModule</title>
<path fill="none" stroke="black" d="M522,-85.08C522,-106.12 522,-137.8 522,-137.8 522,-137.8 336.3,-137.8 336.3,-137.8"/>
<polygon fill="black" stroke="black" points="336.3,-134.3 326.3,-137.8 336.3,-141.3 336.3,-134.3"/>
</g>
<!-- HashtagsModule -->
<g id="node2" class="node">
<title>HashtagsModule</title>
<polygon fill="#8dd3c7" stroke="black" points="460.37,-84.8 457.37,-88.8 436.37,-88.8 433.37,-84.8 349.63,-84.8 349.63,-48.8 460.37,-48.8 460.37,-84.8"/>
<text text-anchor="middle" x="405" y="-62.6" font-family="Times,serif" font-size="14.00">HashtagsModule</text>
</g>
<!-- HashtagsModule&#45;&gt;ApiModule -->
<g id="edge2" class="edge">
<title>HashtagsModule&#45;&gt;ApiModule</title>
<path fill="none" stroke="black" d="M405,-84.82C405,-102.17 405,-125.8 405,-125.8 405,-125.8 336.29,-125.8 336.29,-125.8"/>
<polygon fill="black" stroke="black" points="336.29,-122.3 326.29,-125.8 336.29,-129.3 336.29,-122.3"/>
</g>
<!-- LikesModule -->
<g id="node3" class="node">
<title>LikesModule</title>
<polygon fill="#8dd3c7" stroke="black" points="331.15,-84.8 328.15,-88.8 307.15,-88.8 304.15,-84.8 240.85,-84.8 240.85,-48.8 331.15,-48.8 331.15,-84.8"/>
<text text-anchor="middle" x="286" y="-62.6" font-family="Times,serif" font-size="14.00">LikesModule</text>
</g>
<!-- LikesModule&#45;&gt;ApiModule -->
<g id="edge3" class="edge">
<title>LikesModule&#45;&gt;ApiModule</title>
<path fill="none" stroke="black" d="M286,-84.91C286,-84.91 286,-103.79 286,-103.79"/>
<polygon fill="black" stroke="black" points="282.5,-103.79 286,-113.79 289.5,-103.79 282.5,-103.79"/>
</g>
<!-- PostsModule -->
<g id="node4" class="node">
<title>PostsModule</title>
<polygon fill="#8dd3c7" stroke="black" points="222.61,-84.8 219.61,-88.8 198.61,-88.8 195.61,-84.8 133.39,-84.8 133.39,-48.8 222.61,-48.8 222.61,-84.8"/>
<text text-anchor="middle" x="178" y="-62.6" font-family="Times,serif" font-size="14.00">PostsModule</text>
</g>
<!-- PostsModule&#45;&gt;ApiModule -->
<g id="edge4" class="edge">
<title>PostsModule&#45;&gt;ApiModule</title>
<path fill="none" stroke="black" d="M178,-84.82C178,-102.17 178,-125.8 178,-125.8 178,-125.8 235.78,-125.8 235.78,-125.8"/>
<polygon fill="black" stroke="black" points="235.78,-129.3 245.78,-125.8 235.78,-122.3 235.78,-129.3"/>
</g>
<!-- UsersModule -->
<g id="node5" class="node">
<title>UsersModule</title>
<polygon fill="#8dd3c7" stroke="black" points="115.92,-84.8 112.92,-88.8 91.92,-88.8 88.92,-84.8 24.08,-84.8 24.08,-48.8 115.92,-48.8 115.92,-84.8"/>
<text text-anchor="middle" x="70" y="-62.6" font-family="Times,serif" font-size="14.00">UsersModule</text>
</g>
<!-- UsersModule&#45;&gt;ApiModule -->
<g id="edge5" class="edge">
<title>UsersModule&#45;&gt;ApiModule</title>
<path fill="none" stroke="black" d="M70,-85.08C70,-106.12 70,-137.8 70,-137.8 70,-137.8 235.88,-137.8 235.88,-137.8"/>
<polygon fill="black" stroke="black" points="235.88,-141.3 245.88,-137.8 235.88,-134.3 235.88,-141.3"/>
</g>
</g>
</svg>
