<?xml version="1.0" encoding="UTF-8" standalone="no"?>
<!DOCTYPE svg PUBLIC "-//W3C//DTD SVG 1.1//EN"
 "http://www.w3.org/Graphics/SVG/1.1/DTD/svg11.dtd">
<!-- Generated by graphviz version 2.47.3 (20210619.1520)
 -->
<!-- Title: dependencies Pages: 1 -->
<svg width="290pt" height="174pt"
 viewBox="0.00 0.00 290.00 173.80" xmlns="http://www.w3.org/2000/svg" xmlns:xlink="http://www.w3.org/1999/xlink">
<g id="graph0" class="graph" transform="scale(1 1) rotate(0) translate(4 169.8)">
<title>dependencies</title>
<polygon fill="white" stroke="transparent" points="-4,4 -4,-169.8 286,-169.8 286,4 -4,4"/>
<text text-anchor="middle" x="141" y="-8.2" font-family="sans-serif" font-size="14.00">dependencies</text>
<g id="clust1" class="cluster">
<title>cluster_PostsModule</title>
<polygon fill="none" stroke="black" stroke-dasharray="1,5" points="8,-32.8 8,-157.8 274,-157.8 274,-32.8 8,-32.8"/>
</g>
<g id="clust3" class="cluster">
<title>cluster_PostsModule_imports</title>
<polygon fill="none" stroke="black" points="160,-40.8 160,-92.8 266,-92.8 266,-40.8 160,-40.8"/>
</g>
<g id="clust6" class="cluster">
<title>cluster_PostsModule_providers</title>
<polygon fill="none" stroke="black" points="16,-40.8 16,-92.8 152,-92.8 152,-40.8 16,-40.8"/>
</g>
<!-- LikesModule -->
<g id="node1" class="node">
<title>LikesModule</title>
<polygon fill="#8dd3c7" stroke="black" points="258.15,-84.8 255.15,-88.8 234.15,-88.8 231.15,-84.8 167.85,-84.8 167.85,-48.8 258.15,-48.8 258.15,-84.8"/>
<text text-anchor="middle" x="213" y="-62.6" font-family="Times,serif" font-size="14.00">LikesModule</text>
</g>
<!-- PostsModule -->
<g id="node2" class="node">
<title>PostsModule</title>
<polygon fill="#8dd3c7" stroke="black" points="192.61,-149.8 189.61,-153.8 168.61,-153.8 165.61,-149.8 103.39,-149.8 103.39,-113.8 192.61,-113.8 192.61,-149.8"/>
<text text-anchor="middle" x="148" y="-127.6" font-family="Times,serif" font-size="14.00">PostsModule</text>
</g>
<!-- LikesModule&#45;&gt;PostsModule -->
<g id="edge1" class="edge">
<title>LikesModule&#45;&gt;PostsModule</title>
<path fill="none" stroke="black" d="M180.12,-84.91C180.12,-84.91 180.12,-103.79 180.12,-103.79"/>
<polygon fill="black" stroke="black" points="176.62,-103.79 180.12,-113.79 183.62,-103.79 176.62,-103.79"/>
</g>
<!-- PostsService -->
<g id="node3" class="node">
<title>PostsService</title>
<ellipse fill="#fdb462" stroke="black" cx="84" cy="-66.8" rx="60.27" ry="18"/>
<text text-anchor="middle" x="84" y="-62.6" font-family="Times,serif" font-size="14.00">PostsService</text>
</g>
<!-- PostsService&#45;&gt;PostsModule -->
<g id="edge2" class="edge">
<title>PostsService&#45;&gt;PostsModule</title>
<path fill="none" stroke="black" d="M123.91,-80.58C123.91,-80.58 123.91,-103.35 123.91,-103.35"/>
<polygon fill="black" stroke="black" points="120.41,-103.35 123.91,-113.35 127.41,-103.35 120.41,-103.35"/>
</g>
</g>
</svg>
