<?xml version="1.0" encoding="UTF-8" standalone="no"?>
<!DOCTYPE svg PUBLIC "-//W3C//DTD SVG 1.1//EN"
 "http://www.w3.org/Graphics/SVG/1.1/DTD/svg11.dtd">
<!-- Generated by graphviz version 2.47.3 (20210619.1520)
 -->
<!-- Title: dependencies Pages: 1 -->
<svg width="178pt" height="247pt"
 viewBox="0.00 0.00 178.00 246.80" xmlns="http://www.w3.org/2000/svg" xmlns:xlink="http://www.w3.org/1999/xlink">
<g id="graph0" class="graph" transform="scale(1 1) rotate(0) translate(4 242.8)">
<title>dependencies</title>
<polygon fill="white" stroke="transparent" points="-4,4 -4,-242.8 174,-242.8 174,4 -4,4"/>
<text text-anchor="middle" x="85" y="-8.2" font-family="sans-serif" font-size="14.00">dependencies</text>
<g id="clust1" class="cluster">
<title>cluster_MockLikesModule</title>
<polygon fill="none" stroke="black" stroke-dasharray="1,5" points="8,-32.8 8,-230.8 162,-230.8 162,-32.8 8,-32.8"/>
</g>
<g id="clust4" class="cluster">
<title>cluster_MockLikesModule_exports</title>
<polygon fill="none" stroke="black" points="31,-170.8 31,-222.8 139,-222.8 139,-170.8 31,-170.8"/>
</g>
<g id="clust6" class="cluster">
<title>cluster_MockLikesModule_providers</title>
<polygon fill="none" stroke="black" points="16,-40.8 16,-92.8 154,-92.8 154,-40.8 16,-40.8"/>
</g>
<!-- LikesService  -->
<g id="node1" class="node">
<title>LikesService </title>
<polygon fill="#fb8072" stroke="black" points="131.08,-214.8 38.92,-214.8 38.92,-178.8 131.08,-178.8 131.08,-214.8"/>
<text text-anchor="middle" x="85" y="-192.6" font-family="Times,serif" font-size="14.00">LikesService </text>
</g>
<!-- MockLikesModule -->
<g id="node2" class="node">
<title>MockLikesModule</title>
<polygon fill="#8dd3c7" stroke="black" points="146.81,-149.8 143.81,-153.8 122.81,-153.8 119.81,-149.8 23.19,-149.8 23.19,-113.8 146.81,-113.8 146.81,-149.8"/>
<text text-anchor="middle" x="85" y="-127.6" font-family="Times,serif" font-size="14.00">MockLikesModule</text>
</g>
<!-- MockLikesModule&#45;&gt;LikesService  -->
<g id="edge1" class="edge">
<title>MockLikesModule&#45;&gt;LikesService </title>
<path fill="none" stroke="black" stroke-dasharray="5,2" d="M85,-149.91C85,-149.91 85,-168.79 85,-168.79"/>
<polygon fill="black" stroke="black" points="81.5,-168.79 85,-178.79 88.5,-168.79 81.5,-168.79"/>
</g>
<!-- LikesService -->
<g id="node3" class="node">
<title>LikesService</title>
<ellipse fill="#fdb462" stroke="black" cx="85" cy="-66.8" rx="61.39" ry="18"/>
<text text-anchor="middle" x="85" y="-62.6" font-family="Times,serif" font-size="14.00">LikesService</text>
</g>
<!-- LikesService&#45;&gt;MockLikesModule -->
<g id="edge2" class="edge">
<title>LikesService&#45;&gt;MockLikesModule</title>
<path fill="none" stroke="black" d="M85,-84.91C85,-84.91 85,-103.79 85,-103.79"/>
<polygon fill="black" stroke="black" points="81.5,-103.79 85,-113.79 88.5,-103.79 81.5,-103.79"/>
</g>
</g>
</svg>
