<?xml version="1.0" encoding="UTF-8" standalone="no"?>
<!DOCTYPE svg PUBLIC "-//W3C//DTD SVG 1.1//EN"
 "http://www.w3.org/Graphics/SVG/1.1/DTD/svg11.dtd">
<!-- Generated by graphviz version 2.47.3 (20210619.1520)
 -->
<!-- Title: dependencies Pages: 1 -->
<svg width="396pt" height="174pt"
 viewBox="0.00 0.00 396.00 173.80" xmlns="http://www.w3.org/2000/svg" xmlns:xlink="http://www.w3.org/1999/xlink">
<g id="graph0" class="graph" transform="scale(1 1) rotate(0) translate(4 169.8)">
<title>dependencies</title>
<polygon fill="white" stroke="transparent" points="-4,4 -4,-169.8 392,-169.8 392,4 -4,4"/>
<text text-anchor="middle" x="194" y="-8.2" font-family="sans-serif" font-size="14.00">dependencies</text>
<g id="clust1" class="cluster">
<title>cluster_AppModule</title>
<polygon fill="none" stroke="black" stroke-dasharray="1,5" points="8,-32.8 8,-157.8 380,-157.8 380,-32.8 8,-32.8"/>
</g>
<g id="clust3" class="cluster">
<title>cluster_AppModule_imports</title>
<polygon fill="none" stroke="black" points="154,-40.8 154,-92.8 372,-92.8 372,-40.8 154,-40.8"/>
</g>
<g id="clust6" class="cluster">
<title>cluster_AppModule_providers</title>
<polygon fill="none" stroke="black" points="16,-40.8 16,-92.8 146,-92.8 146,-40.8 16,-40.8"/>
</g>
<!-- ApiModule -->
<g id="node1" class="node">
<title>ApiModule</title>
<polygon fill="#8dd3c7" stroke="black" points="364.05,-84.8 361.05,-88.8 340.05,-88.8 337.05,-84.8 283.95,-84.8 283.95,-48.8 364.05,-48.8 364.05,-84.8"/>
<text text-anchor="middle" x="324" y="-62.6" font-family="Times,serif" font-size="14.00">ApiModule</text>
</g>
<!-- AppModule -->
<g id="node3" class="node">
<title>AppModule</title>
<polygon fill="#8dd3c7" stroke="black" points="255.66,-149.8 252.66,-153.8 231.66,-153.8 228.66,-149.8 172.34,-149.8 172.34,-113.8 255.66,-113.8 255.66,-149.8"/>
<text text-anchor="middle" x="214" y="-127.6" font-family="Times,serif" font-size="14.00">AppModule</text>
</g>
<!-- ApiModule&#45;&gt;AppModule -->
<g id="edge1" class="edge">
<title>ApiModule&#45;&gt;AppModule</title>
<path fill="none" stroke="black" d="M324,-84.91C324,-104.14 324,-131.8 324,-131.8 324,-131.8 265.9,-131.8 265.9,-131.8"/>
<polygon fill="black" stroke="black" points="265.9,-128.3 255.9,-131.8 265.9,-135.3 265.9,-128.3"/>
</g>
<!-- ProdDbModule -->
<g id="node2" class="node">
<title>ProdDbModule</title>
<polygon fill="#8dd3c7" stroke="black" points="265.6,-84.8 262.6,-88.8 241.6,-88.8 238.6,-84.8 162.4,-84.8 162.4,-48.8 265.6,-48.8 265.6,-84.8"/>
<text text-anchor="middle" x="214" y="-62.6" font-family="Times,serif" font-size="14.00">ProdDbModule</text>
</g>
<!-- ProdDbModule&#45;&gt;AppModule -->
<g id="edge2" class="edge">
<title>ProdDbModule&#45;&gt;AppModule</title>
<path fill="none" stroke="black" d="M214,-84.91C214,-84.91 214,-103.79 214,-103.79"/>
<polygon fill="black" stroke="black" points="210.5,-103.79 214,-113.79 217.5,-103.79 210.5,-103.79"/>
</g>
<!-- AppService -->
<g id="node4" class="node">
<title>AppService</title>
<ellipse fill="#fdb462" stroke="black" cx="81" cy="-66.8" rx="56.74" ry="18"/>
<text text-anchor="middle" x="81" y="-62.6" font-family="Times,serif" font-size="14.00">AppService</text>
</g>
<!-- AppService&#45;&gt;AppModule -->
<g id="edge3" class="edge">
<title>AppService&#45;&gt;AppModule</title>
<path fill="none" stroke="black" d="M81,-84.91C81,-104.14 81,-131.8 81,-131.8 81,-131.8 162.28,-131.8 162.28,-131.8"/>
<polygon fill="black" stroke="black" points="162.28,-135.3 172.28,-131.8 162.28,-128.3 162.28,-135.3"/>
</g>
</g>
</svg>
